<?xml version="1.0" encoding="UTF-8" standalone="no"?>
<!-- Created with Inkscape (http://www.inkscape.org/) -->

<svg
   width="512"
   height="512"
   viewBox="0 0 135.46667 135.46666"
   version="1.1"
   id="svg1"
   inkscape:version="1.3.2 (091e20ef0f, 2023-11-25)"
   sodipodi:docname="ambition.svg"
   inkscape:export-filename="./ambition-2x.png"
   inkscape:export-xdpi="192"
   inkscape:export-ydpi="192"
   xmlns:inkscape="http://www.inkscape.org/namespaces/inkscape"
   xmlns:sodipodi="http://sodipodi.sourceforge.net/DTD/sodipodi-0.dtd"
   xmlns="http://www.w3.org/2000/svg"
   xmlns:svg="http://www.w3.org/2000/svg">
  <sodipodi:namedview
     id="namedview1"
     pagecolor="#ffffff"
     bordercolor="#000000"
     borderopacity="0.25"
     inkscape:showpageshadow="2"
     inkscape:pageopacity="0.0"
     inkscape:pagecheckerboard="0"
     inkscape:deskcolor="#d1d1d1"
     inkscape:document-units="mm"
     inkscape:zoom="0.78573232"
     inkscape:cx="230.9947"
     inkscape:cy="383.08212"
     inkscape:window-width="2492"
     inkscape:window-height="1052"
     inkscape:window-x="0"
     inkscape:window-y="0"
     inkscape:window-maximized="1"
     inkscape:current-layer="layer1" />
  <defs
     id="defs1" />
  <g
     inkscape:label="Canvas"
     inkscape:groupmode="layer"
     id="layer1">
    <rect
       style="fill:#1a1a1a;fill-opacity:1;stroke:none;stroke-width:15.6606;stroke-opacity:0.504037"
       id="rect14"
       width="135.46666"
       height="135.46666"
       x="3.5603841e-06"
       y="12.106169"
       transform="translate(0,-12.106165)" />
    <g
       id="g11"
       style="fill:#f9f9f9;fill-opacity:1"
       transform="matrix(1.4610708,0,0,1.4610708,-31.229864,-35.012994)"
       inkscape:export-filename="./ambition-4x-nobg-white.png"
       inkscape:export-xdpi="384"
       inkscape:export-ydpi="384">
      <g
         id="g1"
         transform="translate(1.8333333e-5,-20.306436)"
         style="fill:#f9f9f9;fill-opacity:1">
        <path
           id="path1-6"
           style="fill:#f9f9f9;fill-opacity:1;stroke-width:1.28923"
           inkscape:transform-center-y="2.6463077"
           d="M 67.733334,64.327814 60.459006,76.927272 53.184929,89.52672 h 8.940759 l 1.319698,-2.285615 0.656449,-1.136884 h -4.944398 l 4.287949,-7.426928 4.287948,-7.427168 4.287949,7.427168 4.287948,7.426928 h -4.944398 l 0.65645,1.136884 1.319698,2.285615 h 8.940757 L 75.007663,76.927272 Z" />
        <path
           id="path1-6-6"
           style="fill:#f9f9f9;fill-opacity:1;stroke-width:1.28923"
           inkscape:transform-center-y="2.6463051"
           d="m 67.733333,78.807776 -7.274491,12.599231 -7.273975,12.599753 h 8.941057 l 0.0067,-0.0119 h 11.201383 l 0.0067,0.0119 h 8.941056 L 75.007825,91.407007 Z m 0,6.922058 4.288111,7.427454 4.265889,7.389212 h -17.108 l 4.26589,-7.389212 z" />
      </g>
      <path
         id="rect3-3"
         style="fill:#f9f9f9;fill-opacity:1;stroke-width:1.74119"
         d="M 78.022588,96.623859 80.599121,94.047326 67.733333,81.181542 54.867544,94.047326 57.444077,96.623859 67.733333,86.334604 Z" />
    </g>
  </g>
</svg>
